<svg width="20" height="21" viewBox="0 0 20 21" fill="none" xmlns="http://www.w3.org/2000/svg">
<path d="M19.7619 19.1139L15.5808 14.9328C16.8511 13.4064 17.6161 11.4448 17.6161 9.30954C17.6161 4.45122 13.6649 0.5 8.80657 0.5C3.95 0.5 -0.0012207 4.45122 -0.0012207 9.30779C-0.0012207 14.1644 3.95 18.1156 8.80657 18.1156C10.9436 18.1156 12.9034 17.3506 14.4299 16.0803L18.6109 20.2614C18.7706 20.421 18.9776 20.5 19.1864 20.5C19.3935 20.5 19.6023 20.421 19.7619 20.2614C20.0795 19.9456 20.0795 19.4315 19.7619 19.1139ZM1.62524 9.30779C1.62524 5.34779 4.84657 2.12646 8.80657 2.12646C12.7666 2.12646 15.9897 5.34779 15.9897 9.30779C15.9897 13.2678 12.7666 16.4909 8.80657 16.4909C4.84657 16.4909 1.62524 13.2678 1.62524 9.30779Z" fill="#2C2C2C"/>
</svg>
